<mxfile host="Electron" modified="2024-05-21T16:25:48.152Z" agent="Mozilla/5.0 (Macintosh; Intel Mac OS X 10_15_7) AppleWebKit/537.36 (KHTML, like Gecko) draw.io/24.1.0 Chrome/120.0.6099.109 Electron/28.1.0 Safari/537.36" etag="tfgaJ9QGfUZQx60fws8g" version="24.1.0" type="device">
  <diagram name="four-layers-of-choice" id="SAM_tC9CIVqK7PkyQRDT">
    <mxGraphModel dx="1114" dy="941" grid="1" gridSize="10" guides="1" tooltips="1" connect="1" arrows="1" fold="1" page="1" pageScale="1" pageWidth="827" pageHeight="1169" math="0" shadow="0">
      <root>
        <mxCell id="0" />
        <mxCell id="1" parent="0" />
        <mxCell id="9Qbzj7xQOk-ZIAOEFLsu-1" value="Content Packs" style="rounded=0;whiteSpace=wrap;html=1;align=left;spacingLeft=14;fillColor=#ffe6cc;strokeColor=#d79b00;" vertex="1" parent="1">
          <mxGeometry x="230" y="310" width="390" height="60" as="geometry" />
        </mxCell>
        <mxCell id="9Qbzj7xQOk-ZIAOEFLsu-2" value="Connectors" style="rounded=0;whiteSpace=wrap;html=1;align=left;spacingLeft=14;fillColor=#fff2cc;strokeColor=#d6b656;" vertex="1" parent="1">
          <mxGeometry x="230" y="380" width="390" height="60" as="geometry" />
        </mxCell>
        <mxCell id="9Qbzj7xQOk-ZIAOEFLsu-3" value="Configuration" style="rounded=0;whiteSpace=wrap;html=1;align=left;spacingLeft=14;fillColor=#dae8fc;strokeColor=#6c8ebf;" vertex="1" parent="1">
          <mxGeometry x="230" y="450" width="390" height="60" as="geometry" />
        </mxCell>
        <mxCell id="9Qbzj7xQOk-ZIAOEFLsu-4" value="Runtime Libraries" style="rounded=0;whiteSpace=wrap;html=1;align=left;spacingLeft=14;fillColor=#d5e8d4;strokeColor=#82b366;" vertex="1" parent="1">
          <mxGeometry x="230" y="520" width="390" height="60" as="geometry" />
        </mxCell>
        <mxCell id="9Qbzj7xQOk-ZIAOEFLsu-6" value="What you want to do&lt;div&gt;(use cases)&lt;/div&gt;" style="rounded=0;whiteSpace=wrap;html=1;fillColor=none;verticalAlign=top;dashed=1;dashPattern=8 8;" vertex="1" parent="1">
          <mxGeometry x="365" y="260" width="120" height="360" as="geometry" />
        </mxCell>
      </root>
    </mxGraphModel>
  </diagram>
</mxfile>
